<svg width="120" height="120" viewBox="0 0 120 120" fill="none" xmlns="http://www.w3.org/2000/svg">
<ellipse cx="60.0066" cy="60.0169" rx="52.6615" ry="52.6615" fill="white"/>
<path d="M51.6059 85.1419H76.8004V85.1356C80.7763 85.0182 84.5525 83.3666 87.3377 80.5269C90.123 77.6872 91.7012 73.8798 91.7417 69.9023C91.7822 65.9249 90.2818 62.0862 87.555 59.1903C84.8281 56.2945 81.0864 54.5664 77.1137 54.368C76.3724 51.0788 74.9723 47.9738 72.9981 45.2406H72.9847C70.4881 41.7678 67.1484 38.9878 63.2805 37.1625C59.4125 35.3371 55.1435 34.5265 50.8756 34.8071C46.6078 35.0876 42.4816 36.45 38.8858 38.7659C35.29 41.0818 32.343 44.275 30.3224 48.0447C28.3018 51.8143 27.2741 56.0363 27.3362 60.3129C27.3983 64.5895 28.5481 68.7799 30.6772 72.4894C32.8064 76.1988 35.8448 79.3051 39.5063 81.5157C43.1678 83.7263 47.3317 84.9684 51.6059 85.1249C51.6059 85.1419 51.6059 85.1419 51.6059 85.1419Z" fill="white"/>
<path d="M51.9504 93.0081V84.0824H76.0497V84.0762C79.8522 83.9631 83.4635 82.383 86.127 79.6669C88.7906 76.9508 90.2998 73.3094 90.3386 69.5054C90.3773 65.7014 88.9426 62.03 86.335 59.2602C83.7273 56.4903 80.149 54.837 76.3496 54.6465C75.6403 51.5004 74.301 48.5306 72.4125 45.9163H72.4C70.012 42.5944 66.8176 39.9351 63.1177 38.189C59.4179 36.4429 55.3344 35.6675 51.2521 35.9357C47.1697 36.204 43.2228 37.5071 39.7833 39.7223C36.3437 41.9376 33.5248 44.9919 31.592 48.5978C29.6591 52.2036 28.6761 56.2421 28.7354 60.3328C28.7948 64.4236 29.8946 68.4318 31.9312 71.9801C33.9678 75.5283 36.8742 78.4996 40.3766 80.6141C43.879 82.7286 47.862 83.9167 51.9504 84.0664V92.9921C46.0309 92.8293 40.2641 91.0774 35.2542 87.9201C30.2444 84.7628 26.1759 80.3161 23.4751 75.0462C20.7742 69.7762 19.5405 63.8768 19.903 57.9661C20.2656 52.0555 22.2111 46.3511 25.5358 41.4507C28.8605 36.5503 33.4419 32.6343 38.8001 30.1129C44.1583 27.5916 50.0959 26.5577 55.991 27.1196C61.886 27.6815 67.5214 29.8185 72.3068 33.3067C77.0921 36.795 80.8512 41.506 83.1903 46.9463C83.7356 47.1319 84.2783 47.3381 84.8058 47.5604C89.8043 49.6656 93.9275 53.4247 96.4844 58.208C99.0414 62.9912 99.8768 68.5078 98.8507 73.8337C97.8247 79.1595 94.9994 83.9709 90.8483 87.4617C86.6973 90.9525 81.4726 92.9107 76.0497 93.0081H51.9504Z" fill="black"/>
<path d="M37.2232 32.1358C42.0043 32.1359 45.8804 36.0119 45.8804 40.793C45.8804 45.5741 42.0043 49.4502 37.2232 49.4503C32.4421 49.4503 28.5661 45.5742 28.566 40.793C28.566 36.0119 32.442 32.1358 37.2232 32.1358Z" fill="white" stroke="black" stroke-width="5"/>
<path d="M51.9505 47.3094C54.5134 47.3095 56.5911 49.3872 56.5911 51.9501C56.5911 54.5129 54.5133 56.5907 51.9505 56.5907C49.3876 56.5907 47.3099 54.5129 47.3099 51.9501C47.3099 49.3872 49.3876 47.3094 51.9505 47.3094Z" fill="white" stroke="black" stroke-width="5"/>
<path d="M47.4876 21.425C49.5575 21.4251 51.2356 23.1031 51.2356 25.1731C51.2356 27.243 49.5575 28.9211 47.4876 28.9211C45.4177 28.9211 43.7396 27.243 43.7395 25.1731C43.7395 23.1031 45.4176 21.425 47.4876 21.425Z" fill="white" stroke="black" stroke-width="5"/>
<path d="M59.9486 118C45.5681 117.99 31.7043 112.638 21.0473 102.982C10.3904 93.327 3.70028 80.057 2.2753 65.7474C0.850325 51.4377 4.79208 37.109 13.3357 25.5416C21.8792 13.9743 34.4154 5.99325 48.5113 3.1473C62.6073 0.301362 77.2579 2.79345 89.6202 10.14C101.982 17.4865 111.175 29.1635 115.413 42.9051C119.652 56.6467 118.634 71.4729 112.558 84.5066C106.482 97.5403 95.7805 107.852 82.5305 113.441C75.3835 116.454 67.7049 118.005 59.9486 118ZM59.9486 10.8919C50.2392 10.8919 40.748 13.771 32.6749 19.1653C24.6019 24.5595 18.3098 32.2265 14.5942 41.1967C10.8786 50.167 9.90643 60.0376 11.8006 69.5603C13.6948 79.0831 18.3703 87.8303 25.2358 94.6958C32.1014 101.561 40.8486 106.237 50.3713 108.131C59.8941 110.025 69.7647 109.053 78.735 105.337C87.7052 101.622 95.3722 95.3297 100.766 87.2567C106.161 79.1837 109.04 69.6924 109.04 59.9831C109.04 46.9633 103.868 34.4768 94.6613 25.2704C85.4549 16.064 72.9684 10.8919 59.9486 10.8919Z" fill="black"/>
<rect x="27.123" y="60.9667" width="64.7667" height="2.9" fill="black"/>
<rect x="27.123" y="67.7333" width="64.7667" height="1.93333" fill="black"/>
<path d="M38.7231 82.2333C59.4859 82.2333 71.1268 82.2333 91.8897 82.2333V83.2H38.7231V82.2333Z" fill="black"/>
<path d="M33.8897 77.4C55.7851 77.4 68.061 77.4 89.9564 77.4V78.3667H33.8897V77.4Z" fill="black"/>
<path d="M30.9897 73.5333C54.0176 73.5333 66.9285 73.5333 89.9564 73.5333V75.4667H30.9897V73.5333Z" fill="black"/>
<path d="M38.7231 80.3C59.4859 80.3 71.1268 80.3 91.8897 80.3V81.2667H38.7231V80.3Z" fill="black"/>
</svg>
